<?xml version="1.0" encoding="UTF-8"?>
<svg width="400" height="150" version="1.1" xmlns="http://www.w3.org/2000/svg">
 <path d="m16.867 22.834c3.3558 0 6.2321-2.7162 6.2321-6.0714 0-3.515-2.8763-6.2312-6.2321-6.2312s-6.2321 2.7161-6.2321 6.2312c0 3.3552 2.8763 6.0714 6.2321 6.0714" fill="#ffc700"/>
 <path d="m97.406 10.531c-3.6754 0-6.2326 2.5578-6.2326 6.2326v43.456c0 9.2669 3.9981 17.897 11.349 23.809 5.5932 4.7932 12.141 7.0295 19.013 7.0295h0.1612c3.5155 0 6.0704-2.5578 6.0704-6.2326 0-3.515-2.2325-5.7505-5.908-5.7505-3.8351 0-7.9901-1.5982-11.506-4.6339-4.3145-3.5151-6.7099-8.6293-6.7099-14.221v-17.094h12.465c3.3558 0 5.913-2.715 5.913-6.0703 0-3.3552-2.5572-5.9129-5.913-5.9129h-12.465v-14.379c0-3.6748-2.5572-6.2326-6.2326-6.2326zm143.18 0c-3.5158 0-6.0752 2.5578-6.0752 6.2326v43.456c0 9.2669 3.9981 17.897 11.349 23.809 5.5931 4.7932 11.981 7.0295 19.013 7.0295 3.6754 0 6.2326-2.5578 6.2326-6.2326 0-3.515-2.3975-5.7505-5.913-5.7505-3.9951 0-7.9901-1.5982-11.506-4.6339-4.3144-3.5151-6.8721-8.6293-6.8721-14.221v-17.094h12.465c3.3556 0 5.9128-2.5553 5.9128-6.0703s-2.5572-5.9129-5.9128-5.9129h-12.465v-14.379c0-3.6748-2.5524-6.2326-6.2278-6.2326zm103.71 0c-3.6752 0-6.2326 2.5578-6.2326 6.2326v68.539c0 3.515 2.5574 6.0752 6.2326 6.0752 3.5158 0 6.0752-2.5602 6.0752-6.0752v-16.774c0-0.95864 0.47778-1.7565 1.1168-2.3956 1.2785-1.2782 3.3576-0.96091 4.4764 0.15741l23.007 23.007c1.1185 1.2782 3.0385 2.0808 4.7962 2.0808 3.6754 0 6.2326-2.5602 6.2326-6.0752 0-1.9173-0.80017-3.8305-2.2383-5.2685l-23.809-23.809 18.216-15.658c1.2782-1.1184 2.0759-3.0338 2.0759-4.7913 0-3.6748-2.5572-6.2326-6.2326-6.2326-1.7578 0-3.6727 0.8003-5.1111 2.2383l-22.53 19.17v-34.188c0-3.6748-2.5594-6.2326-6.0752-6.2326zm-327.43 18.216c-3.6754 0-6.2326 2.5529-6.2326 6.2277v40.264c0 8.9474 7.3509 16.14 16.14 16.14 8.6291 0 15.818-6.7103 16.297-15.338v-20.454c0-8.6278 5.7548-14.379 14.384-14.379 8.4694 0 14.379 5.751 14.379 14.379v29.56c0 3.6748 2.3998 6.2326 6.0752 6.2326s6.2326-2.5578 6.2326-6.2326v-30.356c0-15.019-11.026-25.565-26.687-25.565-15.82 0-26.849 10.546-26.849 25.565v20.449l0.1612 0.1622c-0.1587 2.077-1.9195 3.6747-3.8371 3.6747-2.0774 0-3.677-1.6-3.8369-3.5172v-40.583c0-3.6748-2.5524-6.2277-6.2278-6.2277zm140.94 0.79689c-9.2683 0-17.896 4.1539-23.809 11.344-10.866 13.421-9.1089 32.274 4.3142 43.299 5.5931 4.4737 12.626 7.0295 19.657 7.0295 1.5981 0 3.0357-0.15993 4.6338-0.31974 1.1185-0.15968 2.7161-0.6356 3.9946-2.2333 2.0773-2.5564 1.76-6.5538-0.7969-8.7906-1.1185-0.79886-2.2414-1.1166-3.6797-1.1166h-1.1166c-0.9588 0.15968-1.9192 0.31974-2.8777 0.31974-10.866 0-19.013-8.4674-19.013-18.693 0-10.226 8.3057-18.698 18.693-18.698 8.3095 0 15.342 5.593 17.739 13.262h-17.896c-3.0362 0-5.4357 2.4-5.4357 5.4357 0 3.1955 2.3995 5.5882 5.4357 5.5882h23.652c2.5567 0 4.7942-1.1151 5.9127-2.5531 0.9589-1.1184 1.4364-2.7164 1.4364-4.3141-0.4793-8.7876-4.632-16.938-11.344-22.53-5.5928-4.6334-12.469-7.0296-19.5-7.0296zm143.02 0c-9.1087 0-17.734 4.1539-23.647 11.344-11.026 13.421-9.1089 32.274 4.3141 43.299 5.4332 4.4737 12.461 7.0295 19.652 7.0295 1.4381 0 3.0385-0.15993 4.4766-0.31974 1.2785-0.15968 2.8733-0.6356 4.1517-2.2333 2.0774-2.5564 1.6026-6.5538-0.9543-8.7906-0.9588-0.79886-2.2388-1.1166-3.5173-1.1166h-1.2789c-0.7989 0.15968-1.7565 0.31974-2.7154 0.31974-10.866 0-19.018-8.4674-19.018-18.693 0-10.226 8.3085-18.698 18.536-18.698 8.4694 0 15.504 5.593 17.901 13.262h-17.901c-3.0363 0-5.5932 2.4-5.5932 5.4357 0 3.1955 2.3995 5.5882 5.4357 5.5882h23.809c2.5569 0 4.6345-1.1151 5.913-2.5531 0.95859-1.1184 1.4364-2.7164 1.4364-4.3141-0.47955-8.7876-4.6348-16.938-11.506-22.53-5.5929-4.6334-12.304-7.0296-19.495-7.0296zm-76.863 1.1167c-9.2683 0-17.896 4.1539-23.809 11.344-4.6342 5.5921-7.0295 12.462-7.0295 19.652v23.489c0 3.6748 2.5522 6.2326 6.2276 6.2326s6.2326-2.5578 6.2326-6.2326v-23.809c0-4.1541 1.4402-8.3056 4.1568-11.501 3.5157-4.3139 8.6286-6.7098 14.221-6.7098h0.1562c1.4384 0 2.8758-0.48267 3.9943-1.4413 1.2784-1.1184 2.0811-2.5564 2.4007-3.9944 0.1587-1.7575-0.3228-3.3508-1.4414-4.629-1.598-1.9173-3.6729-2.4006-5.111-2.4006z" fill="#130c0e"/>
 <path d="m276.86 133.4v-3.0357c0-0.31953-0.1587-0.47932-0.4793-0.47932h-2.397c-0.3196 0-0.6392 0.15968-0.6392 0.47932v3.0357c0 0.31954 0.3196 0.63911 0.6392 0.63911h2.397c0.3196 0 0.4793-0.31957 0.4793-0.63911m-10.068-2.3966c-0.639 0.15968-1.7577 0.31954-2.7166 0.31954-2.397 0-2.8763-1.7575-2.8763-3.9944v-2.0771c0-2.2368 0.4793-3.9944 2.8763-3.9944 0.6392 0 1.9177 0.15968 2.7166 0.31956zm3.5158 1.7575v-19.013c0-0.31954-0.1587-0.63908-0.4796-0.63908h-2.5566c-0.3197 0-0.4796 0.31954-0.4796 0.63908v4.7932c-1.1185-0.15969-2.0774-0.15969-2.7166-0.15969-4.3144 0-6.5517 2.5564-6.5517 6.8703v2.0771c0 4.3139 2.2373 6.8703 6.5517 6.8703 1.758 0 3.8354-0.31954 5.5931-0.63907 0.6393-0.15969 0.6393-0.31957 0.6393-0.79889m-18.377-7.8289h-5.7528c0-2.2368 1.1185-3.515 2.8763-3.515 1.758 0 2.8765 1.2782 2.8765 3.515m3.6755 1.9173v-1.5978c0-3.9944-2.397-6.8703-6.552-6.8703-4.1547 0-6.5517 2.7162-6.5517 6.8703v2.0771c0 5.4323 3.8351 6.8703 6.5517 6.8703 2.5569 0 3.5157-0.15968 5.4332-0.47932 0.4795 0 0.4795-0.15968 0.4795-0.63908v-1.9173c0-0.15968-0.1586-0.31953-0.4795-0.31953-1.2782 0.15968-3.0362 0.31953-5.1136 0.31953-2.5567 0-3.3558-1.9173-3.3558-3.515v-0.15968h8.9489c0.4793 0 0.6393-0.15968 0.6393-0.6391m-13.903-5.9116v-2.0771c0-0.31954-0.3197-0.47933-0.6393-0.47933-0.9588 0-2.5569 0.31954-3.8351 1.2782v-0.47935c0-0.31953-0.3196-0.63907-0.6392-0.63907h-2.2373c-0.3196 0-0.6393 0.31954-0.6393 0.63907v14.22c0 0.31954 0.3197 0.63911 0.6393 0.63911h2.397c0.3196 0 0.6392-0.31957 0.6392-0.63911v-11.024c1.1185-0.47933 2.2373-0.95865 3.6754-0.95865 0.3196 0 0.6393-0.15968 0.6393-0.47932m-11.026 12.462v-14.22c0-0.31953-0.1586-0.63907-0.4793-0.63907h-2.5569c-0.3193 0-0.4793 0.31954-0.4793 0.63907v10.865c-0.7989 0.47932-2.0773 1.1184-3.1959 1.1184-0.7991 0-1.2784-0.15969-1.598-0.47933-0.6393-0.47932-0.6393-1.2782-0.6393-2.5564v-8.9474c0-0.31953-0.3196-0.63907-0.6392-0.63907h-2.397c-0.3196 0-0.6392 0.31954-0.6392 0.63907v8.9474c0 2.2368 0.3196 3.8346 1.4384 4.953 0.7989 0.79886 1.9174 1.1184 3.3556 1.1184 1.758 0 2.8765-0.47932 4.3146-1.438v0.6391c0 0.31954 0.1587 0.63911 0.4793 0.63911h2.5569c0.3197 0 0.4793-0.31957 0.4793-0.63911m-15.021-3.515c0-1.2782-0.3196-2.7162-2.7166-4.1541l-3.5155-2.077c-0.7989-0.47934-1.1185-0.79888-1.1185-1.1184 0-0.95864 0.4793-1.2782 1.9174-1.2782 1.4384 0 3.6755 0.31957 4.4744 0.31957h0.1586c0.1587 0 0.3197-0.15969 0.3197-0.47933v-1.5977c0-0.31957-0.1587-0.47932-0.4796-0.6391-1.2782-0.31954-2.5567-0.47933-4.794-0.47933-3.5155 0-5.2732 1.2782-5.2732 4.1541 0 1.5977 0.9588 2.8759 2.397 3.6748l3.6754 2.3966c0.9588 0.47932 1.2782 0.79886 1.2782 1.2782 0 0.79886-0.3194 1.438-1.9174 1.438-0.9589 0-3.3559-0.15968-4.6343-0.31954h-0.1587c-0.3196 0-0.4795 0.15968-0.4795 0.47932v1.5977c0 0.31954 0.1586 0.47933 0.4795 0.63908 1.5978 0.31957 3.8351 0.47932 4.9537 0.47932 3.6754 0 5.4332-1.9173 5.4332-4.3139m-12.944 0c0-1.2782-0.3196-2.7162-2.5567-4.1541l-3.6754-2.077c-0.6392-0.47934-1.1185-0.79888-1.1185-1.1184 0-0.95864 0.6392-1.2782 1.9174-1.2782 1.5981 0 3.8354 0.31957 4.6343 0.31957 0.3196 0 0.4793-0.15969 0.4793-0.47933v-1.5977c0-0.31957-0.1587-0.47932-0.4793-0.6391-1.4382-0.31954-2.7166-0.47933-4.9539-0.47933-3.3558 0-5.1136 1.2782-5.1136 4.1541 0 1.5977 0.9589 2.8759 2.2373 3.6748l3.8351 2.3966c0.7992 0.47932 1.1186 0.79886 1.1186 1.2782 0 0.79886-0.1587 1.438-1.9175 1.438-0.7991 0-3.1961-0.15968-4.6343-0.31954-0.3196 0-0.4793 0.15968-0.4793 0.47932v1.5977c0 0.31954 0.1587 0.47933 0.4793 0.63908 1.5981 0.31957 3.8352 0.47932 4.9539 0.47932 3.5155 0 5.2733-1.9173 5.2733-4.3139m-18.057-4.6334h-4.794l1.9177-8.1485c0.1587-0.31956 0.3196-0.47932 0.4793-0.47932 0.3196 0 0.3196 0.15968 0.4795 0.47932zm5.9127 8.3083v-0.15969l-4.4746-17.096c-0.639-2.5564-2.5567-2.8759-3.8351-2.8759-1.1185 0-3.0362 0.31954-3.8351 2.8759l-4.4744 17.096v0.15969c0 0.31953 0.1587 0.47932 0.4793 0.47932h2.8765c0.3196 0 0.4793-0.31957 0.6393-0.47932l1.2782-5.2726h6.2323l1.2782 5.2726c0 0.15968 0.3196 0.47932 0.4796 0.47932h2.8763c0.3196 0 0.4795-0.15968 0.4795-0.47932m-24.609-0.15969v-3.0357c0-0.31954-0.3196-0.47932-0.6392-0.47932h-2.397c-0.3196 0-0.4793 0.15968-0.4793 0.47932v3.0357c0 0.31954 0.1587 0.63911 0.4793 0.63911h2.397c0.3196 0 0.6392-0.31957 0.6392-0.63911m-3.6752-14.38c0-0.31957-0.3196-0.47932-0.4795-0.47932h-2.8763c-0.3196 0-0.4796 0.15968-0.4796 0.47932l-3.0362 11.823h-0.1587c-0.1586 0-0.3196-0.15968-0.4795-0.63911l-2.7166-11.184c0-0.15968-0.3194-0.47932-0.4793-0.47932h-2.8763c-0.3196 0-0.4795 0.15968-0.4795 0.47932v0.15968l3.6754 12.622c0.6392 2.0771 1.5981 2.2368 2.397 2.2368h0.3196l-0.1587 0.79886c-0.4795 1.438-0.9588 1.7575-2.2373 1.7575-0.6392 0-2.2373-0.15968-3.0362-0.15968-0.3196 0-0.6392 0.15968-0.6392 0.47932v1.7575c0 0.31957 0.3196 0.31957 0.6392 0.47932 0.6393 0.15968 1.9177 0.31957 2.8763 0.31957 3.6754 0 4.7942-1.2782 5.5931-4.3139l4.6343-15.977v-0.15968m-14.861 14.539v-1.7575c0-0.31954-0.1587-0.31954-0.4796-0.31954h-1.5978c-0.9588 0-0.9588-0.31956-0.9588-1.5977v-8.6278h2.3969c0.3197 0 0.6393-0.15968 0.6393-0.47932v-1.5977c0-0.31954-0.3196-0.63908-0.6393-0.63908h-2.3969v-2.8759c0-0.15968-0.1587-0.31956-0.4793-0.31956h-0.1587l-2.5567 0.47932c-0.1586 0-0.4795 0.15968-0.4795 0.47932v2.2368h-2.5567c-0.3196 0-0.6392 0.31954-0.6392 0.63908v1.1184c0 0.31956 0.3196 0.47932 0.6392 0.6391l2.5567 0.31954v8.6278c0 3.6748 1.2784 4.3139 4.3146 4.3139 0.6393 0 1.2785 0 1.9175-0.15969 0.3196 0 0.4795-0.15968 0.4795-0.47932m-11.665-0.15968v-14.22c0-0.31954-0.3196-0.63908-0.6392-0.63908h-2.397c-0.3196 0-0.6392 0.31954-0.6392 0.63908v14.22c0 0.31954 0.3196 0.6391 0.6392 0.6391h2.397c0.3196 0 0.6392-0.31956 0.6392-0.6391m0-17.415v-2.3966c0-0.31956-0.1586-0.6391-0.4795-0.6391h-2.7166c-0.3196 0-0.4793 0.31954-0.4793 0.6391v2.3966c0 0.31954 0.1587 0.47932 0.4793 0.47932h2.7166c0.3196 0 0.4795-0.15968 0.4795-0.47932m-6.8716 17.415v-19.652c0-0.31954-0.1586-0.63908-0.4793-0.63908h-2.5566c-0.3196 0-0.6392 0.31954-0.6392 0.63908v19.652c0 0.31954 0.3196 0.6391 0.6392 0.6391h2.5566c0.3197 0 0.4793-0.31956 0.4793-0.6391m-10.387-2.8759c-0.7989 0.47932-1.7578 0.79886-2.7166 0.79886-1.4381 0-2.0774-0.31954-2.0774-1.5978v-0.15968c0-1.5978 0.6393-2.3966 3.0362-2.3966h1.7578zm3.6754 2.8759v-9.7462c0-3.515-2.2373-5.2726-6.0724-5.2726-1.9177 0-3.5155 0.15968-4.6343 0.47932-0.3196 0-0.4793 0.15968-0.4793 0.47932v1.7575c0 0.47932 0.1587 0.47932 0.4793 0.47932h0.1612c0.9589-0.15968 2.7166-0.15968 4.4744-0.15968 1.5981 0 2.397 0.47932 2.397 2.2368v1.1184h-1.7578c-4.794 0-6.7116 1.5977-6.7116 4.7932v0.15969c0 3.6748 2.5569 4.4737 4.7939 4.4737 1.2785 0 2.5569-0.47932 3.8351-1.1184v0.31954c0 0.31954 0.3197 0.6391 0.6393 0.6391h2.2373c0.3196 0 0.6392-0.31956 0.6392-0.6391m-14.542 0v-14.22c0-0.31954-0.1587-0.63908-0.4793-0.63908h-2.5569c-0.3197 0-0.6393 0.31954-0.6393 0.63908v10.865c-0.6392 0.47932-2.0773 1.1184-3.0362 1.1184-0.7989 0-1.2782-0.15968-1.7577-0.47932-0.4793-0.47932-0.4793-1.2782-0.4793-2.5564v-8.9474c0-0.31954-0.3196-0.63908-0.6393-0.63908h-2.5569c-0.3196 0-0.4793 0.31954-0.4793 0.63908v8.9474c0 2.2368 0.3196 3.8346 1.2785 4.953 0.7989 0.79886 2.0774 1.1184 3.5155 1.1184 1.7577 0 2.8763-0.47932 4.1547-1.438v0.63911c0 0.31954 0.3196 0.6391 0.6393 0.6391h2.5569c0.3196 0 0.4793-0.31956 0.4793-0.6391m-19.336-7.6692c0 3.515-1.2785 5.1128-3.9951 5.1128-2.7163 0-3.9948-1.5978-3.9948-5.1128v-3.6748c0-3.6748 1.2785-5.2726 3.9948-5.2726 2.7166 0 3.9951 1.5978 3.9951 5.2726zm3.8351 0v-3.6748c0-6.0714-3.3556-8.6278-7.8302-8.6278-4.4743 0-7.8302 2.5564-7.8302 8.6278v3.6748c0 5.1128 2.3973 7.6692 6.0725 8.3083v0.63908c0 2.876 1.7577 3.8346 4.4743 3.8346 0.7992 0 2.0776-0.15968 2.5569-0.31956 0.4793 0 0.6393-0.31954 0.6393-0.47932v-1.7575c0-0.31953-0.1587-0.47932-0.6393-0.47932h-2.5569c-0.4793 0-0.9586-0.15968-0.9586-0.79888v-0.63908c3.6752-0.6391 6.0722-3.1955 6.0722-8.3083m-24.929 7.6692v-19.652c0-0.31953-0.1586-0.63907-0.4793-0.63907h-2.5569c-0.3196 0-0.6392 0.31954-0.6392 0.63907v19.652c0 0.31954 0.3196 0.6391 0.6392 0.6391h2.5569c0.3196 0 0.4793-0.31956 0.4793-0.6391m-10.387-2.8759c-0.7992 0.47932-1.7578 0.79886-2.8765 0.79886-1.2783 0-1.9175-0.31954-1.9175-1.5977v-0.15969c0-1.5977 0.6392-2.3966 3.0362-2.3966h1.7578zm3.6754 2.8759v-9.7462c0-3.515-2.2373-5.2726-6.0724-5.2726-1.9177 0-3.5158 0.15968-4.6343 0.47932-0.3196 0-0.4793 0.15968-0.4793 0.47932v1.7575c0 0.47932 0.1587 0.47932 0.4793 0.47932h0.1587c0.9586-0.15968 2.7166-0.15968 4.4743-0.15968 1.5979 0 2.397 0.47932 2.397 2.2368v1.1184h-1.7577c-4.794 0-6.7117 1.5978-6.7117 4.7932v0.15968c0 3.6748 2.5567 4.4737 4.794 4.4737 1.2784 0 2.5566-0.47932 3.8351-1.1184v0.31954c0 0.31954 0.3196 0.63911 0.6392 0.63911h2.2373c0.3197 0 0.6393-0.31957 0.6393-0.63911m-13.423 0.15968v-1.7575c0-0.31954-0.1587-0.31954-0.6393-0.31954h-1.4381c-0.9589 0-0.9589-0.31957-0.9589-1.5978v-8.6278h2.397c0.3196 0 0.4796-0.15968 0.4796-0.47932v-1.5978c0-0.31954-0.1587-0.63908-0.4796-0.63908h-2.397v-2.8759c0-0.15968-0.3196-0.31957-0.4792-0.31957h-0.1587l-2.5567 0.47933c-0.3196 0-0.4795 0.15968-0.4795 0.47932v2.2368h-2.5567c-0.3196 0-0.6392 0.31954-0.6392 0.63908v1.1184c0 0.31956 0.3196 0.47932 0.6392 0.6391l2.5567 0.31954v8.6278c0 3.6748 1.2784 4.3139 4.3146 4.3139 0.6393 0 1.2785 0 1.9177-0.15968 0.3196 0 0.4793-0.15968 0.4793-0.47932m-14.062-6.2312c0 2.3966-1.1185 3.8346-3.0362 3.8346s-2.8765-1.438-2.8765-3.8346v-2.0771c0-2.2368 0.9588-3.8346 2.8765-3.8346s3.0362 1.5977 3.0362 3.8346zm3.5155 0v-2.0771c0-3.9944-2.237-6.8703-6.5517-6.8703-4.3146 0-6.5517 2.8759-6.5517 6.8703v2.0771c0 3.9944 2.2371 6.8703 6.5517 6.8703 4.3147 0 6.5517-2.8759 6.5517-6.8703m-11.985-11.024v-2.0771c0-0.31954-0.3196-0.63908-0.6392-0.63908h-13.423c-0.1586 0-0.4795 0.31954-0.4795 0.63908v2.0771c0 0.31957 0.3196 0.47932 0.4795 0.47932h4.794v16.617c0 0.31954 0.3196 0.6391 0.6392 0.6391h2.7166c0.3197 0 0.4793-0.31956 0.4793-0.6391v-16.617h4.794c0.3196 0 0.6392-0.15968 0.6392-0.47932" fill="#130c0e"/>
</svg>
