<?xml version="1.0" standalone="no"?>
<!DOCTYPE svg PUBLIC "-//W3C//DTD SVG 20010904//EN"
 "http://www.w3.org/TR/2001/REC-SVG-20010904/DTD/svg10.dtd">
<svg version="1.0" xmlns="http://www.w3.org/2000/svg"
 width="400.000000pt" height="205.000000pt" viewBox="0 0 400.000000 205.000000"
 preserveAspectRatio="xMidYMid meet">

<g transform="translate(0.000000,205.000000) scale(0.100000,-0.100000)"
fill="#000000" stroke="none">
<path d="M1835 2016 c-80 -30 -120 -56 -182 -117 -58 -57 -103 -136 -128 -223
-21 -71 -16 -217 8 -281 15 -39 16 -36 16 105 1 163 11 216 43 226 17 5 50
-23 194 -167 l174 -174 0 328 0 327 -32 -1 c-18 0 -60 -10 -93 -23z"/>
<path d="M2050 1696 c0 -339 0 -343 -22 -376 -13 -19 -36 -38 -52 -43 -27 -9
-34 -4 -187 149 l-159 159 0 -181 0 -180 33 -31 c88 -84 211 -133 336 -133
144 0 263 52 361 157 33 35 60 68 60 73 0 6 -53 10 -130 10 -136 0 -180 10
-194 45 -3 9 -6 169 -6 356 0 332 0 339 -20 339 -20 0 -20 -7 -20 -344z"/>
<path d="M2180 1700 l0 -310 145 0 144 0 12 43 c19 68 14 193 -10 268 -22 70
-80 166 -128 211 -29 27 -140 98 -155 98 -4 0 -8 -139 -8 -310z"/>
<path d="M689 771 c-59 -12 -102 -43 -126 -91 -20 -38 -23 -60 -23 -150 0 -90
3 -112 23 -150 37 -75 115 -110 212 -96 59 9 106 43 133 96 19 38 22 60 22
150 0 90 -3 112 -22 150 -36 70 -127 108 -219 91z m141 -59 c45 -33 60 -78 60
-182 -1 -155 -41 -210 -155 -210 -111 0 -154 56 -155 200 0 134 24 187 96 210
41 13 124 4 154 -18z"/>
<path d="M1637 766 c-16 -16 -17 -39 -15 -244 l3 -227 153 -3 c149 -2 178 3
133 28 -11 5 -72 10 -135 10 l-116 0 -2 227 c-3 217 -4 226 -21 209z"/>
<path d="M2232 767 c-6 -7 -49 -110 -97 -229 -74 -186 -85 -220 -75 -238 15
-28 23 -19 50 57 12 35 28 67 35 73 8 6 52 10 110 8 l98 -3 29 -78 c25 -64 32
-76 44 -66 8 6 14 17 14 23 1 22 -175 456 -187 460 -6 3 -16 -1 -21 -7z m62
-177 c20 -53 36 -101 36 -108 0 -8 -26 -12 -85 -12 -47 0 -85 4 -85 9 0 22 84
221 90 214 4 -5 23 -51 44 -103z"/>
<path d="M2618 769 c-16 -9 -18 -32 -18 -249 0 -132 3 -240 8 -240 28 1 32 21
34 219 l3 204 134 -202 c74 -110 140 -206 148 -212 10 -9 17 -8 28 1 13 10 15
50 15 241 0 217 -1 229 -20 239 -19 10 -20 6 -22 -202 l-3 -213 -143 213 c-78
116 -143 212 -145 212 -1 0 -10 -5 -19 -11z"/>
<path d="M3168 769 c-16 -9 -18 -32 -18 -249 0 -132 4 -240 8 -240 23 0 32 30
32 111 0 86 1 88 30 109 l30 21 28 -32 c96 -115 167 -195 179 -202 8 -5 21 -6
29 -3 11 4 -16 42 -97 137 l-113 131 97 90 c58 53 97 97 97 109 0 10 -4 19 -9
19 -4 0 -66 -54 -137 -119 l-129 -119 -5 123 c-5 114 -6 123 -22 114z"/>
<path d="M3787 759 c-17 -27 -177 -430 -177 -446 0 -6 6 -16 14 -22 11 -9 19
1 41 56 15 38 31 74 37 81 7 8 42 12 108 12 l99 0 29 -76 c30 -77 39 -88 56
-62 6 11 -16 77 -78 234 -48 121 -93 225 -101 233 -11 11 -15 10 -28 -10z m62
-163 c23 -58 41 -109 41 -115 0 -7 -31 -11 -85 -11 -54 0 -85 4 -85 11 0 13
80 219 85 219 2 0 22 -47 44 -104z"/>
<path d="M12 758 c-18 -18 -17 -478 1 -478 33 0 37 23 37 224 l0 201 140 -210
c77 -116 144 -210 150 -209 5 1 15 2 20 3 7 0 9 83 8 238 -3 217 -5 238 -20
241 -17 3 -18 -12 -18 -205 l0 -208 -138 207 c-79 120 -144 208 -152 208 -9 0
-21 -5 -28 -12z"/>
<path d="M1100 525 c0 -135 4 -245 8 -245 24 0 32 30 32 122 l0 98 89 0 c151
0 171 -17 171 -147 0 -64 2 -74 16 -69 9 3 18 6 20 6 2 0 4 39 4 86 0 83 -1
87 -30 114 -30 28 -30 29 -11 40 50 26 66 120 31 178 -31 50 -71 62 -210 62
l-120 0 0 -245z m277 181 c23 -20 28 -32 28 -70 0 -36 -6 -51 -28 -73 -26 -26
-33 -28 -132 -31 l-105 -4 0 101 0 101 104 0 c96 0 107 -2 133 -24z"/>
<path d="M198 83 c31 -6 29 -33 -3 -33 -14 0 -25 -4 -25 -9 0 -4 11 -6 24 -4
19 4 25 0 29 -18 2 -13 4 -4 3 21 -1 41 -3 45 -26 46 -22 1 -22 0 -2 -3z"/>
<path d="M270 45 c0 -44 0 -45 33 -44 30 2 30 2 5 6 -31 5 -38 29 -10 36 16 4
16 5 0 6 -29 2 -21 29 10 34 25 4 25 4 -5 6 -33 1 -33 0 -33 -44z"/>
<path d="M364 79 c-3 -6 -1 -16 5 -22 9 -9 10 -7 5 7 -6 16 -4 18 19 14 15 -3
27 -1 27 3 0 13 -48 11 -56 -2z"/>
<path d="M469 88 c-1 -2 -3 -20 -4 -41 -1 -23 1 -33 6 -25 4 7 6 23 2 35 -4
20 -1 23 22 23 22 0 26 -4 22 -20 -3 -11 -1 -20 5 -20 5 0 8 10 6 23 -2 16
-11 23 -30 25 -16 2 -29 2 -29 0z"/>
<path d="M572 78 c-26 -26 -7 -79 28 -77 9 0 6 4 -8 10 -31 12 -28 62 5 67 18
3 22 -2 26 -35 l4 -38 -1 40 c-1 32 -5 41 -21 43 -11 1 -26 -3 -33 -10z"/>
<path d="M672 45 c1 -49 1 -49 7 -12 l6 39 18 -31 c25 -43 37 -39 35 12 -1 40
-1 40 -5 7 l-5 -35 -29 35 -28 35 1 -50z"/>
<path d="M781 68 c1 -19 2 -20 6 -5 4 14 12 18 29 14 13 -2 21 0 18 4 -3 5
-16 9 -30 9 -19 0 -24 -5 -23 -22z"/>
<path d="M883 50 c0 -25 2 -35 4 -22 2 12 2 32 0 45 -2 12 -4 2 -4 -23z"/>
<path d="M930 46 c0 -42 2 -46 24 -46 33 0 47 20 37 56 -5 22 -14 30 -34 32
-26 3 -27 1 -27 -42z m50 19 c0 -8 -9 -15 -20 -15 -11 0 -20 7 -20 15 0 8 9
15 20 15 11 0 20 -7 20 -15z m8 -37 c-7 -20 -48 -23 -48 -4 0 11 9 16 26 16
16 0 24 -5 22 -12z"/>
<path d="M1034 48 c1 -40 3 -43 29 -44 24 -1 24 -1 3 3 -21 3 -26 11 -29 44
l-4 39 1 -42z"/>
<path d="M1143 83 c9 -2 23 -2 30 0 6 3 -1 5 -18 5 -16 0 -22 -2 -12 -5z"/>
<path d="M1277 75 c-4 -8 -2 -17 4 -20 5 -4 8 -1 7 7 -2 9 6 12 25 11 15 -1
25 2 22 8 -10 14 -52 11 -58 -6z"/>
<path d="M1382 78 c-30 -30 -2 -86 38 -73 30 9 25 79 -5 83 -11 1 -26 -3 -33
-10z m46 -30 c-2 -25 -8 -33 -23 -33 -20 0 -31 25 -21 51 3 8 15 14 26 14 18
0 21 -5 18 -32z"/>
<path d="M1481 53 c-1 -34 3 -43 20 -48 12 -4 25 -3 30 2 6 6 1 9 -13 9 -19
-1 -24 5 -29 39 l-6 40 -2 -42z"/>
<path d="M1542 60 c0 -19 2 -27 5 -17 2 9 2 25 0 35 -3 9 -5 1 -5 -18z"/>
<path d="M1587 83 c-2 -4 -4 -24 -4 -43 0 -19 2 -27 4 -18 6 23 39 23 51 2 7
-12 9 -6 8 22 -1 34 -4 39 -28 42 -14 2 -28 0 -31 -5z m53 -18 c0 -9 -9 -15
-25 -15 -16 0 -25 6 -25 15 0 9 9 15 25 15 16 0 25 -6 25 -15z"/>
<path d="M1694 76 c-3 -8 -4 -27 -2 -43 4 -34 38 -43 58 -16 12 15 12 16 0 5
-8 -6 -22 -12 -32 -12 -14 0 -18 8 -18 35 0 27 4 35 18 35 10 0 24 -6 32 -12
12 -11 12 -10 1 5 -16 21 -50 23 -57 3z"/>
<path d="M1797 83 c-11 -10 -8 -73 3 -73 6 0 10 18 10 40 0 41 -2 45 -13 33z"/>
<path d="M1850 78 c0 -10 4 -18 9 -18 5 0 18 -15 30 -32 l21 -33 -1 50 c-2 47
-2 48 -9 15 -4 -19 -8 -30 -9 -25 -1 6 -10 21 -21 35 -16 20 -20 22 -20 8z"/>
<path d="M1957 84 c-12 -13 -8 -61 8 -74 8 -6 23 -9 35 -5 20 6 27 29 11 39
-5 3 -8 -2 -7 -12 1 -11 -6 -17 -19 -17 -16 0 -20 7 -20 30 0 33 30 48 47 23
8 -10 9 -10 5 2 -4 16 -48 26 -60 14z"/>
<path d="M2230 45 c0 -41 2 -45 24 -45 14 0 27 4 30 9 3 4 -6 6 -19 3 -23 -4
-25 -1 -25 33 0 32 3 36 22 33 14 -2 25 -13 29 -28 6 -21 7 -22 8 -4 1 26 -17
44 -46 44 -21 0 -23 -5 -23 -45z"/>
<path d="M2332 48 c3 -39 6 -43 31 -44 25 -1 25 -1 2 3 -31 5 -33 30 -2 36
l22 4 -22 2 c-33 2 -29 29 5 34 25 4 24 4 -6 6 -33 1 -33 1 -30 -41z"/>
<path d="M2437 83 c-15 -14 -6 -33 18 -39 14 -3 25 -12 25 -20 0 -16 -36 -19
-43 -4 -3 6 -4 5 -3 -2 2 -7 13 -13 27 -13 34 0 38 32 5 45 -33 12 -34 34 -1
28 13 -3 22 -1 19 3 -6 11 -38 12 -47 2z"/>
<path d="M2533 50 c0 -25 2 -35 4 -22 2 12 2 32 0 45 -2 12 -4 2 -4 -23z"/>
<path d="M2592 78 c-30 -30 -2 -86 38 -73 20 6 27 29 11 39 -5 3 -8 -2 -7 -12
1 -11 -6 -17 -19 -17 -16 0 -20 7 -20 30 0 33 30 48 47 23 8 -10 9 -10 5 2 -5
19 -39 24 -55 8z"/>
<path d="M2692 45 c1 -49 1 -49 7 -12 l6 39 18 -31 c25 -43 37 -39 35 12 -1
40 -1 40 -5 7 l-5 -35 -29 35 -28 35 1 -50z"/>
<path d="M3020 78 c0 -10 4 -18 9 -18 5 0 18 -15 30 -32 11 -18 21 -27 21 -21
0 7 -7 21 -15 30 -8 10 -21 27 -29 38 -14 18 -15 18 -16 3z"/>
<path d="M3121 43 l2 -48 6 40 6 40 23 -37 c13 -21 26 -38 28 -38 2 0 3 21 3
48 -2 44 -2 45 -8 12 l-6 -35 -20 33 c-11 17 -23 32 -27 32 -4 0 -7 -21 -7
-47z"/>
<path d="M3237 83 c-4 -3 -7 -21 -7 -39 0 -24 5 -34 20 -39 40 -13 68 43 38
73 -13 13 -41 16 -51 5z m48 -38 c0 -23 -4 -30 -20 -30 -15 0 -21 8 -23 33 -3
30 -1 33 20 30 18 -2 23 -9 23 -33z"/>
<path d="M3331 84 c-2 -18 20 -74 29 -74 10 0 22 31 15 38 -3 3 -5 0 -5 -6 0
-24 -17 -11 -28 21 -5 17 -10 27 -11 21z"/>
<path d="M3385 79 c-4 -6 -5 -12 -2 -15 2 -3 7 2 10 11 7 17 1 20 -8 4z"/>
<path d="M3435 56 c-9 -21 -14 -41 -11 -44 3 -3 6 0 6 6 0 16 33 15 49 0 10
-11 11 -10 6 5 -4 9 -16 17 -26 17 -20 0 -26 15 -9 25 6 3 10 1 10 -6 0 -7 3
-10 6 -6 3 3 1 14 -4 24 -10 16 -13 13 -27 -21z"/>
<path d="M3523 83 c12 -3 17 -16 19 -41 l1 -37 4 35 c3 19 10 38 16 42 7 4 -4
7 -23 7 -19 -1 -27 -3 -17 -6z"/>
<path d="M3672 78 c-26 -26 -7 -79 28 -77 9 0 6 4 -8 10 -31 12 -28 62 5 67
18 3 22 -2 26 -35 l4 -38 -1 40 c-1 32 -5 41 -21 43 -11 1 -26 -3 -33 -10z"/>
<path d="M3772 45 c1 -49 1 -49 7 -12 l6 39 18 -31 c25 -43 37 -39 35 12 -1
40 -1 40 -5 7 l-5 -35 -29 35 -28 35 1 -50z"/>
<path d="M3071 64 c0 -11 3 -14 6 -6 3 7 2 16 -1 19 -3 4 -6 -2 -5 -13z"/>
<path d="M3613 45 c0 -22 2 -30 4 -17 2 12 2 30 0 40 -3 9 -5 -1 -4 -23z"/>
<path d="M1130 49 c0 -5 9 -9 20 -9 11 0 20 2 20 4 0 2 -9 6 -20 9 -11 3 -20
1 -20 -4z"/>
<path d="M406 36 c18 -14 18 -15 1 -21 -9 -4 -24 -2 -32 5 -9 8 -15 8 -15 2 0
-14 33 -24 54 -16 20 8 21 30 0 38 -26 10 -29 7 -8 -8z"/>
<path d="M813 44 c9 -3 17 -12 17 -20 0 -17 -31 -18 -50 -1 -12 10 -12 9 0 -6
18 -24 55 -18 55 8 0 12 -7 20 -20 22 -16 1 -16 1 -2 -3z"/>
<path d="M1318 32 c19 -21 27 -20 19 3 -4 8 -13 15 -22 15 -13 0 -12 -3 3 -18z"/>
<path d="M2110 40 c0 -5 7 -10 15 -10 8 0 15 5 15 10 0 6 -7 10 -15 10 -8 0
-15 -4 -15 -10z"/>
<path d="M2850 40 c0 -5 5 -10 10 -10 6 0 10 5 10 10 0 6 -4 10 -10 10 -5 0
-10 -4 -10 -10z"/>
<path d="M3022 30 c0 -14 2 -19 5 -12 2 6 2 18 0 25 -3 6 -5 1 -5 -13z"/>
<path d="M1282 14 c9 -9 21 -15 27 -13 6 2 -2 10 -17 17 -25 11 -25 11 -10 -4z"/>
<path d="M1130 9 c0 -5 11 -9 25 -9 32 0 32 6 0 12 -14 3 -25 1 -25 -3z"/>
</g>
</svg>
